<?xml version="1.0" encoding="UTF-8" standalone="no"?>
<!DOCTYPE svg PUBLIC "-//W3C//DTD SVG 1.1//EN"
 "http://www.w3.org/Graphics/SVG/1.1/DTD/svg11.dtd">
<!-- Generated by graphviz version 3.0.0 (20220226.1711)
 -->
<!-- Title: G Pages: 1 -->
<svg width="999pt" height="845pt"
 viewBox="0.00 0.00 1438.00 1217.00" xmlns="http://www.w3.org/2000/svg" xmlns:xlink="http://www.w3.org/1999/xlink">
<g id="graph0" class="graph" transform="scale(0.694444 0.694444) rotate(0) translate(4 1213)">
<title>G</title>
<polygon fill="white" stroke="transparent" points="-4,4 -4,-1213 1434,-1213 1434,4 -4,4"/>
<!-- 2214784552384 -->
<g id="node1" class="node">
<title>2214784552384</title>
<polygon fill="none" stroke="black" points="105,-1162.5 105,-1208.5 372,-1208.5 372,-1162.5 105,-1162.5"/>
<text text-anchor="middle" x="143.5" y="-1193.3" font-family="Times New Roman,serif" font-size="14.00">input_4</text>
<polyline fill="none" stroke="black" points="105,-1185.5 182,-1185.5 "/>
<text text-anchor="middle" x="143.5" y="-1170.3" font-family="Times New Roman,serif" font-size="14.00">InputLayer</text>
<polyline fill="none" stroke="black" points="182,-1162.5 182,-1208.5 "/>
<text text-anchor="middle" x="210" y="-1193.3" font-family="Times New Roman,serif" font-size="14.00">input:</text>
<polyline fill="none" stroke="black" points="182,-1185.5 238,-1185.5 "/>
<text text-anchor="middle" x="210" y="-1170.3" font-family="Times New Roman,serif" font-size="14.00">output:</text>
<polyline fill="none" stroke="black" points="238,-1162.5 238,-1208.5 "/>
<text text-anchor="middle" x="305" y="-1193.3" font-family="Times New Roman,serif" font-size="14.00">[(None, 128, 128, 3)]</text>
<polyline fill="none" stroke="black" points="238,-1185.5 372,-1185.5 "/>
<text text-anchor="middle" x="305" y="-1170.3" font-family="Times New Roman,serif" font-size="14.00">[(None, 128, 128, 3)]</text>
</g>
<!-- 2214786308032 -->
<g id="node4" class="node">
<title>2214786308032</title>
<polygon fill="none" stroke="black" points="624,-1079.5 624,-1125.5 1133,-1125.5 1133,-1079.5 624,-1079.5"/>
<text text-anchor="middle" x="667" y="-1110.3" font-family="Times New Roman,serif" font-size="14.00">concatenate</text>
<polyline fill="none" stroke="black" points="624,-1102.5 710,-1102.5 "/>
<text text-anchor="middle" x="667" y="-1087.3" font-family="Times New Roman,serif" font-size="14.00">Concatenate</text>
<polyline fill="none" stroke="black" points="710,-1079.5 710,-1125.5 "/>
<text text-anchor="middle" x="738" y="-1110.3" font-family="Times New Roman,serif" font-size="14.00">input:</text>
<polyline fill="none" stroke="black" points="710,-1102.5 766,-1102.5 "/>
<text text-anchor="middle" x="738" y="-1087.3" font-family="Times New Roman,serif" font-size="14.00">output:</text>
<polyline fill="none" stroke="black" points="766,-1079.5 766,-1125.5 "/>
<text text-anchor="middle" x="949.5" y="-1110.3" font-family="Times New Roman,serif" font-size="14.00">[(None, 128, 128, 3), (None, 128, 128, 3), (None, 128, 128, 3)]</text>
<polyline fill="none" stroke="black" points="766,-1102.5 1133,-1102.5 "/>
<text text-anchor="middle" x="949.5" y="-1087.3" font-family="Times New Roman,serif" font-size="14.00">(None, 128, 128, 9)</text>
</g>
<!-- 2214784552384&#45;&gt;2214786308032 -->
<g id="edge1" class="edge">
<title>2214784552384&#45;&gt;2214786308032</title>
<path fill="none" stroke="black" d="M372.39,-1163.95C377.15,-1163.28 381.86,-1162.63 386.5,-1162 479.66,-1149.38 582.94,-1136.88 670.73,-1126.69"/>
<polygon fill="black" stroke="black" points="671.28,-1130.15 680.81,-1125.52 670.47,-1123.19 671.28,-1130.15"/>
</g>
<!-- 2214763851008 -->
<g id="node10" class="node">
<title>2214763851008</title>
<polygon fill="none" stroke="black" points="30,-1079.5 30,-1125.5 309,-1125.5 309,-1079.5 30,-1079.5"/>
<text text-anchor="middle" x="79" y="-1110.3" font-family="Times New Roman,serif" font-size="14.00">mobilenetv2_1</text>
<polyline fill="none" stroke="black" points="30,-1102.5 128,-1102.5 "/>
<text text-anchor="middle" x="79" y="-1087.3" font-family="Times New Roman,serif" font-size="14.00">Functional</text>
<polyline fill="none" stroke="black" points="128,-1079.5 128,-1125.5 "/>
<text text-anchor="middle" x="156" y="-1110.3" font-family="Times New Roman,serif" font-size="14.00">input:</text>
<polyline fill="none" stroke="black" points="128,-1102.5 184,-1102.5 "/>
<text text-anchor="middle" x="156" y="-1087.3" font-family="Times New Roman,serif" font-size="14.00">output:</text>
<polyline fill="none" stroke="black" points="184,-1079.5 184,-1125.5 "/>
<text text-anchor="middle" x="246.5" y="-1110.3" font-family="Times New Roman,serif" font-size="14.00">(None, 128, 128, 3)</text>
<polyline fill="none" stroke="black" points="184,-1102.5 309,-1102.5 "/>
<text text-anchor="middle" x="246.5" y="-1087.3" font-family="Times New Roman,serif" font-size="14.00">(None, 4, 4, 1280)</text>
</g>
<!-- 2214784552384&#45;&gt;2214763851008 -->
<g id="edge9" class="edge">
<title>2214784552384&#45;&gt;2214763851008</title>
<path fill="none" stroke="black" d="M219.65,-1162.37C212.04,-1153.44 203.15,-1143 194.98,-1133.41"/>
<polygon fill="black" stroke="black" points="197.48,-1130.95 188.33,-1125.61 192.15,-1135.49 197.48,-1130.95"/>
</g>
<!-- 2214783803696 -->
<g id="node2" class="node">
<title>2214783803696</title>
<polygon fill="none" stroke="black" points="396,-1162.5 396,-1208.5 663,-1208.5 663,-1162.5 396,-1162.5"/>
<text text-anchor="middle" x="434.5" y="-1193.3" font-family="Times New Roman,serif" font-size="14.00">input_5</text>
<polyline fill="none" stroke="black" points="396,-1185.5 473,-1185.5 "/>
<text text-anchor="middle" x="434.5" y="-1170.3" font-family="Times New Roman,serif" font-size="14.00">InputLayer</text>
<polyline fill="none" stroke="black" points="473,-1162.5 473,-1208.5 "/>
<text text-anchor="middle" x="501" y="-1193.3" font-family="Times New Roman,serif" font-size="14.00">input:</text>
<polyline fill="none" stroke="black" points="473,-1185.5 529,-1185.5 "/>
<text text-anchor="middle" x="501" y="-1170.3" font-family="Times New Roman,serif" font-size="14.00">output:</text>
<polyline fill="none" stroke="black" points="529,-1162.5 529,-1208.5 "/>
<text text-anchor="middle" x="596" y="-1193.3" font-family="Times New Roman,serif" font-size="14.00">[(None, 128, 128, 3)]</text>
<polyline fill="none" stroke="black" points="529,-1185.5 663,-1185.5 "/>
<text text-anchor="middle" x="596" y="-1170.3" font-family="Times New Roman,serif" font-size="14.00">[(None, 128, 128, 3)]</text>
</g>
<!-- 2214783803696&#45;&gt;2214786308032 -->
<g id="edge3" class="edge">
<title>2214783803696&#45;&gt;2214786308032</title>
<path fill="none" stroke="black" d="M624.4,-1162.47C670.57,-1151.76 726.2,-1138.85 773.63,-1127.84"/>
<polygon fill="black" stroke="black" points="774.66,-1131.19 783.61,-1125.52 773.08,-1124.37 774.66,-1131.19"/>
</g>
<!-- 2214782437408 -->
<g id="node11" class="node">
<title>2214782437408</title>
<polygon fill="none" stroke="black" points="327,-1079.5 327,-1125.5 606,-1125.5 606,-1079.5 327,-1079.5"/>
<text text-anchor="middle" x="376" y="-1110.3" font-family="Times New Roman,serif" font-size="14.00">mobilenetv2_2</text>
<polyline fill="none" stroke="black" points="327,-1102.5 425,-1102.5 "/>
<text text-anchor="middle" x="376" y="-1087.3" font-family="Times New Roman,serif" font-size="14.00">Functional</text>
<polyline fill="none" stroke="black" points="425,-1079.5 425,-1125.5 "/>
<text text-anchor="middle" x="453" y="-1110.3" font-family="Times New Roman,serif" font-size="14.00">input:</text>
<polyline fill="none" stroke="black" points="425,-1102.5 481,-1102.5 "/>
<text text-anchor="middle" x="453" y="-1087.3" font-family="Times New Roman,serif" font-size="14.00">output:</text>
<polyline fill="none" stroke="black" points="481,-1079.5 481,-1125.5 "/>
<text text-anchor="middle" x="543.5" y="-1110.3" font-family="Times New Roman,serif" font-size="14.00">(None, 128, 128, 3)</text>
<polyline fill="none" stroke="black" points="481,-1102.5 606,-1102.5 "/>
<text text-anchor="middle" x="543.5" y="-1087.3" font-family="Times New Roman,serif" font-size="14.00">(None, 4, 4, 1280)</text>
</g>
<!-- 2214783803696&#45;&gt;2214782437408 -->
<g id="edge10" class="edge">
<title>2214783803696&#45;&gt;2214782437408</title>
<path fill="none" stroke="black" d="M512.28,-1162.37C505.41,-1153.53 497.38,-1143.21 489.99,-1133.7"/>
<polygon fill="black" stroke="black" points="492.6,-1131.35 483.69,-1125.61 487.07,-1135.65 492.6,-1131.35"/>
</g>
<!-- 2214784630592 -->
<g id="node3" class="node">
<title>2214784630592</title>
<polygon fill="none" stroke="black" points="951,-1162.5 951,-1208.5 1218,-1208.5 1218,-1162.5 951,-1162.5"/>
<text text-anchor="middle" x="989.5" y="-1193.3" font-family="Times New Roman,serif" font-size="14.00">input_6</text>
<polyline fill="none" stroke="black" points="951,-1185.5 1028,-1185.5 "/>
<text text-anchor="middle" x="989.5" y="-1170.3" font-family="Times New Roman,serif" font-size="14.00">InputLayer</text>
<polyline fill="none" stroke="black" points="1028,-1162.5 1028,-1208.5 "/>
<text text-anchor="middle" x="1056" y="-1193.3" font-family="Times New Roman,serif" font-size="14.00">input:</text>
<polyline fill="none" stroke="black" points="1028,-1185.5 1084,-1185.5 "/>
<text text-anchor="middle" x="1056" y="-1170.3" font-family="Times New Roman,serif" font-size="14.00">output:</text>
<polyline fill="none" stroke="black" points="1084,-1162.5 1084,-1208.5 "/>
<text text-anchor="middle" x="1151" y="-1193.3" font-family="Times New Roman,serif" font-size="14.00">[(None, 128, 128, 3)]</text>
<polyline fill="none" stroke="black" points="1084,-1185.5 1218,-1185.5 "/>
<text text-anchor="middle" x="1151" y="-1170.3" font-family="Times New Roman,serif" font-size="14.00">[(None, 128, 128, 3)]</text>
</g>
<!-- 2214784630592&#45;&gt;2214786308032 -->
<g id="edge2" class="edge">
<title>2214784630592&#45;&gt;2214786308032</title>
<path fill="none" stroke="black" d="M1028.48,-1162.47C1002.37,-1152.21 971.13,-1139.92 943.94,-1129.23"/>
<polygon fill="black" stroke="black" points="945.09,-1125.92 934.51,-1125.52 942.53,-1132.44 945.09,-1125.92"/>
</g>
<!-- 2214784574608 -->
<g id="node12" class="node">
<title>2214784574608</title>
<polygon fill="none" stroke="black" points="1151,-1079.5 1151,-1125.5 1430,-1125.5 1430,-1079.5 1151,-1079.5"/>
<text text-anchor="middle" x="1200" y="-1110.3" font-family="Times New Roman,serif" font-size="14.00">mobilenetv2_3</text>
<polyline fill="none" stroke="black" points="1151,-1102.5 1249,-1102.5 "/>
<text text-anchor="middle" x="1200" y="-1087.3" font-family="Times New Roman,serif" font-size="14.00">Functional</text>
<polyline fill="none" stroke="black" points="1249,-1079.5 1249,-1125.5 "/>
<text text-anchor="middle" x="1277" y="-1110.3" font-family="Times New Roman,serif" font-size="14.00">input:</text>
<polyline fill="none" stroke="black" points="1249,-1102.5 1305,-1102.5 "/>
<text text-anchor="middle" x="1277" y="-1087.3" font-family="Times New Roman,serif" font-size="14.00">output:</text>
<polyline fill="none" stroke="black" points="1305,-1079.5 1305,-1125.5 "/>
<text text-anchor="middle" x="1367.5" y="-1110.3" font-family="Times New Roman,serif" font-size="14.00">(None, 128, 128, 3)</text>
<polyline fill="none" stroke="black" points="1305,-1102.5 1430,-1102.5 "/>
<text text-anchor="middle" x="1367.5" y="-1087.3" font-family="Times New Roman,serif" font-size="14.00">(None, 4, 4, 1280)</text>
</g>
<!-- 2214784630592&#45;&gt;2214784574608 -->
<g id="edge11" class="edge">
<title>2214784630592&#45;&gt;2214784574608</title>
<path fill="none" stroke="black" d="M1140.52,-1162.47C1166.63,-1152.21 1197.87,-1139.92 1225.06,-1129.23"/>
<polygon fill="black" stroke="black" points="1226.47,-1132.44 1234.49,-1125.52 1223.91,-1125.92 1226.47,-1132.44"/>
</g>
<!-- 2214786394912 -->
<g id="node5" class="node">
<title>2214786394912</title>
<polygon fill="none" stroke="black" points="752.5,-996.5 752.5,-1042.5 1004.5,-1042.5 1004.5,-996.5 752.5,-996.5"/>
<text text-anchor="middle" x="784.5" y="-1027.3" font-family="Times New Roman,serif" font-size="14.00">conv2d</text>
<polyline fill="none" stroke="black" points="752.5,-1019.5 816.5,-1019.5 "/>
<text text-anchor="middle" x="784.5" y="-1004.3" font-family="Times New Roman,serif" font-size="14.00">Conv2D</text>
<polyline fill="none" stroke="black" points="816.5,-996.5 816.5,-1042.5 "/>
<text text-anchor="middle" x="844.5" y="-1027.3" font-family="Times New Roman,serif" font-size="14.00">input:</text>
<polyline fill="none" stroke="black" points="816.5,-1019.5 872.5,-1019.5 "/>
<text text-anchor="middle" x="844.5" y="-1004.3" font-family="Times New Roman,serif" font-size="14.00">output:</text>
<polyline fill="none" stroke="black" points="872.5,-996.5 872.5,-1042.5 "/>
<text text-anchor="middle" x="938.5" y="-1027.3" font-family="Times New Roman,serif" font-size="14.00">(None, 128, 128, 9)</text>
<polyline fill="none" stroke="black" points="872.5,-1019.5 1004.5,-1019.5 "/>
<text text-anchor="middle" x="938.5" y="-1004.3" font-family="Times New Roman,serif" font-size="14.00">(None, 126, 126, 32)</text>
</g>
<!-- 2214786308032&#45;&gt;2214786394912 -->
<g id="edge4" class="edge">
<title>2214786308032&#45;&gt;2214786394912</title>
<path fill="none" stroke="black" d="M878.5,-1079.37C878.5,-1071.15 878.5,-1061.66 878.5,-1052.73"/>
<polygon fill="black" stroke="black" points="882,-1052.61 878.5,-1042.61 875,-1052.61 882,-1052.61"/>
</g>
<!-- 2215461298768 -->
<g id="node6" class="node">
<title>2215461298768</title>
<polygon fill="none" stroke="black" points="748,-913.5 748,-959.5 1009,-959.5 1009,-913.5 748,-913.5"/>
<text text-anchor="middle" x="784.5" y="-944.3" font-family="Times New Roman,serif" font-size="14.00">conv2d_1</text>
<polyline fill="none" stroke="black" points="748,-936.5 821,-936.5 "/>
<text text-anchor="middle" x="784.5" y="-921.3" font-family="Times New Roman,serif" font-size="14.00">Conv2D</text>
<polyline fill="none" stroke="black" points="821,-913.5 821,-959.5 "/>
<text text-anchor="middle" x="849" y="-944.3" font-family="Times New Roman,serif" font-size="14.00">input:</text>
<polyline fill="none" stroke="black" points="821,-936.5 877,-936.5 "/>
<text text-anchor="middle" x="849" y="-921.3" font-family="Times New Roman,serif" font-size="14.00">output:</text>
<polyline fill="none" stroke="black" points="877,-913.5 877,-959.5 "/>
<text text-anchor="middle" x="943" y="-944.3" font-family="Times New Roman,serif" font-size="14.00">(None, 126, 126, 32)</text>
<polyline fill="none" stroke="black" points="877,-936.5 1009,-936.5 "/>
<text text-anchor="middle" x="943" y="-921.3" font-family="Times New Roman,serif" font-size="14.00">(None, 124, 124, 64)</text>
</g>
<!-- 2214786394912&#45;&gt;2215461298768 -->
<g id="edge5" class="edge">
<title>2214786394912&#45;&gt;2215461298768</title>
<path fill="none" stroke="black" d="M878.5,-996.37C878.5,-988.15 878.5,-978.66 878.5,-969.73"/>
<polygon fill="black" stroke="black" points="882,-969.61 878.5,-959.61 875,-969.61 882,-969.61"/>
</g>
<!-- 2214787893952 -->
<g id="node7" class="node">
<title>2214787893952</title>
<polygon fill="none" stroke="black" points="732.5,-830.5 732.5,-876.5 1024.5,-876.5 1024.5,-830.5 732.5,-830.5"/>
<text text-anchor="middle" x="784.5" y="-861.3" font-family="Times New Roman,serif" font-size="14.00">max_pooling2d</text>
<polyline fill="none" stroke="black" points="732.5,-853.5 836.5,-853.5 "/>
<text text-anchor="middle" x="784.5" y="-838.3" font-family="Times New Roman,serif" font-size="14.00">MaxPooling2D</text>
<polyline fill="none" stroke="black" points="836.5,-830.5 836.5,-876.5 "/>
<text text-anchor="middle" x="864.5" y="-861.3" font-family="Times New Roman,serif" font-size="14.00">input:</text>
<polyline fill="none" stroke="black" points="836.5,-853.5 892.5,-853.5 "/>
<text text-anchor="middle" x="864.5" y="-838.3" font-family="Times New Roman,serif" font-size="14.00">output:</text>
<polyline fill="none" stroke="black" points="892.5,-830.5 892.5,-876.5 "/>
<text text-anchor="middle" x="958.5" y="-861.3" font-family="Times New Roman,serif" font-size="14.00">(None, 124, 124, 64)</text>
<polyline fill="none" stroke="black" points="892.5,-853.5 1024.5,-853.5 "/>
<text text-anchor="middle" x="958.5" y="-838.3" font-family="Times New Roman,serif" font-size="14.00">(None, 62, 62, 64)</text>
</g>
<!-- 2215461298768&#45;&gt;2214787893952 -->
<g id="edge6" class="edge">
<title>2215461298768&#45;&gt;2214787893952</title>
<path fill="none" stroke="black" d="M878.5,-913.37C878.5,-905.15 878.5,-895.66 878.5,-886.73"/>
<polygon fill="black" stroke="black" points="882,-886.61 878.5,-876.61 875,-886.61 882,-886.61"/>
</g>
<!-- 2215460949008 -->
<g id="node8" class="node">
<title>2215460949008</title>
<polygon fill="none" stroke="black" points="751.5,-747.5 751.5,-793.5 1005.5,-793.5 1005.5,-747.5 751.5,-747.5"/>
<text text-anchor="middle" x="788" y="-778.3" font-family="Times New Roman,serif" font-size="14.00">conv2d_2</text>
<polyline fill="none" stroke="black" points="751.5,-770.5 824.5,-770.5 "/>
<text text-anchor="middle" x="788" y="-755.3" font-family="Times New Roman,serif" font-size="14.00">Conv2D</text>
<polyline fill="none" stroke="black" points="824.5,-747.5 824.5,-793.5 "/>
<text text-anchor="middle" x="852.5" y="-778.3" font-family="Times New Roman,serif" font-size="14.00">input:</text>
<polyline fill="none" stroke="black" points="824.5,-770.5 880.5,-770.5 "/>
<text text-anchor="middle" x="852.5" y="-755.3" font-family="Times New Roman,serif" font-size="14.00">output:</text>
<polyline fill="none" stroke="black" points="880.5,-747.5 880.5,-793.5 "/>
<text text-anchor="middle" x="943" y="-778.3" font-family="Times New Roman,serif" font-size="14.00">(None, 62, 62, 64)</text>
<polyline fill="none" stroke="black" points="880.5,-770.5 1005.5,-770.5 "/>
<text text-anchor="middle" x="943" y="-755.3" font-family="Times New Roman,serif" font-size="14.00">(None, 60, 60, 128)</text>
</g>
<!-- 2214787893952&#45;&gt;2215460949008 -->
<g id="edge7" class="edge">
<title>2214787893952&#45;&gt;2215460949008</title>
<path fill="none" stroke="black" d="M878.5,-830.37C878.5,-822.15 878.5,-812.66 878.5,-803.73"/>
<polygon fill="black" stroke="black" points="882,-803.61 878.5,-793.61 875,-803.61 882,-803.61"/>
</g>
<!-- 2214787976208 -->
<g id="node9" class="node">
<title>2214787976208</title>
<polygon fill="none" stroke="black" points="729,-664.5 729,-710.5 1028,-710.5 1028,-664.5 729,-664.5"/>
<text text-anchor="middle" x="788" y="-695.3" font-family="Times New Roman,serif" font-size="14.00">max_pooling2d_1</text>
<polyline fill="none" stroke="black" points="729,-687.5 847,-687.5 "/>
<text text-anchor="middle" x="788" y="-672.3" font-family="Times New Roman,serif" font-size="14.00">MaxPooling2D</text>
<polyline fill="none" stroke="black" points="847,-664.5 847,-710.5 "/>
<text text-anchor="middle" x="875" y="-695.3" font-family="Times New Roman,serif" font-size="14.00">input:</text>
<polyline fill="none" stroke="black" points="847,-687.5 903,-687.5 "/>
<text text-anchor="middle" x="875" y="-672.3" font-family="Times New Roman,serif" font-size="14.00">output:</text>
<polyline fill="none" stroke="black" points="903,-664.5 903,-710.5 "/>
<text text-anchor="middle" x="965.5" y="-695.3" font-family="Times New Roman,serif" font-size="14.00">(None, 60, 60, 128)</text>
<polyline fill="none" stroke="black" points="903,-687.5 1028,-687.5 "/>
<text text-anchor="middle" x="965.5" y="-672.3" font-family="Times New Roman,serif" font-size="14.00">(None, 30, 30, 128)</text>
</g>
<!-- 2215460949008&#45;&gt;2214787976208 -->
<g id="edge8" class="edge">
<title>2215460949008&#45;&gt;2214787976208</title>
<path fill="none" stroke="black" d="M878.5,-747.37C878.5,-739.15 878.5,-729.66 878.5,-720.73"/>
<polygon fill="black" stroke="black" points="882,-720.61 878.5,-710.61 875,-720.61 882,-720.61"/>
</g>
<!-- 2214787809232 -->
<g id="node13" class="node">
<title>2214787809232</title>
<polygon fill="none" stroke="black" points="751.5,-581.5 751.5,-627.5 1005.5,-627.5 1005.5,-581.5 751.5,-581.5"/>
<text text-anchor="middle" x="788" y="-612.3" font-family="Times New Roman,serif" font-size="14.00">conv2d_3</text>
<polyline fill="none" stroke="black" points="751.5,-604.5 824.5,-604.5 "/>
<text text-anchor="middle" x="788" y="-589.3" font-family="Times New Roman,serif" font-size="14.00">Conv2D</text>
<polyline fill="none" stroke="black" points="824.5,-581.5 824.5,-627.5 "/>
<text text-anchor="middle" x="852.5" y="-612.3" font-family="Times New Roman,serif" font-size="14.00">input:</text>
<polyline fill="none" stroke="black" points="824.5,-604.5 880.5,-604.5 "/>
<text text-anchor="middle" x="852.5" y="-589.3" font-family="Times New Roman,serif" font-size="14.00">output:</text>
<polyline fill="none" stroke="black" points="880.5,-581.5 880.5,-627.5 "/>
<text text-anchor="middle" x="943" y="-612.3" font-family="Times New Roman,serif" font-size="14.00">(None, 30, 30, 128)</text>
<polyline fill="none" stroke="black" points="880.5,-604.5 1005.5,-604.5 "/>
<text text-anchor="middle" x="943" y="-589.3" font-family="Times New Roman,serif" font-size="14.00">(None, 28, 28, 256)</text>
</g>
<!-- 2214787976208&#45;&gt;2214787809232 -->
<g id="edge12" class="edge">
<title>2214787976208&#45;&gt;2214787809232</title>
<path fill="none" stroke="black" d="M878.5,-664.37C878.5,-656.15 878.5,-646.66 878.5,-637.73"/>
<polygon fill="black" stroke="black" points="882,-637.61 878.5,-627.61 875,-637.61 882,-637.61"/>
</g>
<!-- 2214763360896 -->
<g id="node14" class="node">
<title>2214763360896</title>
<polygon fill="none" stroke="black" points="0,-996.5 0,-1042.5 339,-1042.5 339,-996.5 0,-996.5"/>
<text text-anchor="middle" x="82" y="-1027.3" font-family="Times New Roman,serif" font-size="14.00">global_average_pooling2d</text>
<polyline fill="none" stroke="black" points="0,-1019.5 164,-1019.5 "/>
<text text-anchor="middle" x="82" y="-1004.3" font-family="Times New Roman,serif" font-size="14.00">GlobalAveragePooling2D</text>
<polyline fill="none" stroke="black" points="164,-996.5 164,-1042.5 "/>
<text text-anchor="middle" x="192" y="-1027.3" font-family="Times New Roman,serif" font-size="14.00">input:</text>
<polyline fill="none" stroke="black" points="164,-1019.5 220,-1019.5 "/>
<text text-anchor="middle" x="192" y="-1004.3" font-family="Times New Roman,serif" font-size="14.00">output:</text>
<polyline fill="none" stroke="black" points="220,-996.5 220,-1042.5 "/>
<text text-anchor="middle" x="279.5" y="-1027.3" font-family="Times New Roman,serif" font-size="14.00">(None, 4, 4, 1280)</text>
<polyline fill="none" stroke="black" points="220,-1019.5 339,-1019.5 "/>
<text text-anchor="middle" x="279.5" y="-1004.3" font-family="Times New Roman,serif" font-size="14.00">(None, 1280)</text>
</g>
<!-- 2214763851008&#45;&gt;2214763360896 -->
<g id="edge13" class="edge">
<title>2214763851008&#45;&gt;2214763360896</title>
<path fill="none" stroke="black" d="M169.5,-1079.37C169.5,-1071.15 169.5,-1061.66 169.5,-1052.73"/>
<polygon fill="black" stroke="black" points="173,-1052.61 169.5,-1042.61 166,-1052.61 173,-1052.61"/>
</g>
<!-- 2214785207552 -->
<g id="node15" class="node">
<title>2214785207552</title>
<polygon fill="none" stroke="black" points="357,-996.5 357,-1042.5 710,-1042.5 710,-996.5 357,-996.5"/>
<text text-anchor="middle" x="446" y="-1027.3" font-family="Times New Roman,serif" font-size="14.00">global_average_pooling2d_1</text>
<polyline fill="none" stroke="black" points="357,-1019.5 535,-1019.5 "/>
<text text-anchor="middle" x="446" y="-1004.3" font-family="Times New Roman,serif" font-size="14.00">GlobalAveragePooling2D</text>
<polyline fill="none" stroke="black" points="535,-996.5 535,-1042.5 "/>
<text text-anchor="middle" x="563" y="-1027.3" font-family="Times New Roman,serif" font-size="14.00">input:</text>
<polyline fill="none" stroke="black" points="535,-1019.5 591,-1019.5 "/>
<text text-anchor="middle" x="563" y="-1004.3" font-family="Times New Roman,serif" font-size="14.00">output:</text>
<polyline fill="none" stroke="black" points="591,-996.5 591,-1042.5 "/>
<text text-anchor="middle" x="650.5" y="-1027.3" font-family="Times New Roman,serif" font-size="14.00">(None, 4, 4, 1280)</text>
<polyline fill="none" stroke="black" points="591,-1019.5 710,-1019.5 "/>
<text text-anchor="middle" x="650.5" y="-1004.3" font-family="Times New Roman,serif" font-size="14.00">(None, 1280)</text>
</g>
<!-- 2214782437408&#45;&gt;2214785207552 -->
<g id="edge14" class="edge">
<title>2214782437408&#45;&gt;2214785207552</title>
<path fill="none" stroke="black" d="M484.81,-1079.37C492.19,-1070.44 500.83,-1060 508.76,-1050.41"/>
<polygon fill="black" stroke="black" points="511.54,-1052.54 515.21,-1042.61 506.14,-1048.08 511.54,-1052.54"/>
</g>
<!-- 2214786348272 -->
<g id="node16" class="node">
<title>2214786348272</title>
<polygon fill="none" stroke="black" points="1068,-996.5 1068,-1042.5 1421,-1042.5 1421,-996.5 1068,-996.5"/>
<text text-anchor="middle" x="1157" y="-1027.3" font-family="Times New Roman,serif" font-size="14.00">global_average_pooling2d_2</text>
<polyline fill="none" stroke="black" points="1068,-1019.5 1246,-1019.5 "/>
<text text-anchor="middle" x="1157" y="-1004.3" font-family="Times New Roman,serif" font-size="14.00">GlobalAveragePooling2D</text>
<polyline fill="none" stroke="black" points="1246,-996.5 1246,-1042.5 "/>
<text text-anchor="middle" x="1274" y="-1027.3" font-family="Times New Roman,serif" font-size="14.00">input:</text>
<polyline fill="none" stroke="black" points="1246,-1019.5 1302,-1019.5 "/>
<text text-anchor="middle" x="1274" y="-1004.3" font-family="Times New Roman,serif" font-size="14.00">output:</text>
<polyline fill="none" stroke="black" points="1302,-996.5 1302,-1042.5 "/>
<text text-anchor="middle" x="1361.5" y="-1027.3" font-family="Times New Roman,serif" font-size="14.00">(None, 4, 4, 1280)</text>
<polyline fill="none" stroke="black" points="1302,-1019.5 1421,-1019.5 "/>
<text text-anchor="middle" x="1361.5" y="-1004.3" font-family="Times New Roman,serif" font-size="14.00">(None, 1280)</text>
</g>
<!-- 2214784574608&#45;&gt;2214786348272 -->
<g id="edge15" class="edge">
<title>2214784574608&#45;&gt;2214786348272</title>
<path fill="none" stroke="black" d="M1277.93,-1079.37C1273.06,-1070.79 1267.4,-1060.83 1262.14,-1051.56"/>
<polygon fill="black" stroke="black" points="1265.04,-1049.57 1257.05,-1042.61 1258.95,-1053.03 1265.04,-1049.57"/>
</g>
<!-- 2214787934624 -->
<g id="node17" class="node">
<title>2214787934624</title>
<polygon fill="none" stroke="black" points="699,-498.5 699,-544.5 1058,-544.5 1058,-498.5 699,-498.5"/>
<text text-anchor="middle" x="788" y="-529.3" font-family="Times New Roman,serif" font-size="14.00">global_average_pooling2d_3</text>
<polyline fill="none" stroke="black" points="699,-521.5 877,-521.5 "/>
<text text-anchor="middle" x="788" y="-506.3" font-family="Times New Roman,serif" font-size="14.00">GlobalAveragePooling2D</text>
<polyline fill="none" stroke="black" points="877,-498.5 877,-544.5 "/>
<text text-anchor="middle" x="905" y="-529.3" font-family="Times New Roman,serif" font-size="14.00">input:</text>
<polyline fill="none" stroke="black" points="877,-521.5 933,-521.5 "/>
<text text-anchor="middle" x="905" y="-506.3" font-family="Times New Roman,serif" font-size="14.00">output:</text>
<polyline fill="none" stroke="black" points="933,-498.5 933,-544.5 "/>
<text text-anchor="middle" x="995.5" y="-529.3" font-family="Times New Roman,serif" font-size="14.00">(None, 28, 28, 256)</text>
<polyline fill="none" stroke="black" points="933,-521.5 1058,-521.5 "/>
<text text-anchor="middle" x="995.5" y="-506.3" font-family="Times New Roman,serif" font-size="14.00">(None, 256)</text>
</g>
<!-- 2214787809232&#45;&gt;2214787934624 -->
<g id="edge16" class="edge">
<title>2214787809232&#45;&gt;2214787934624</title>
<path fill="none" stroke="black" d="M878.5,-581.37C878.5,-573.15 878.5,-563.66 878.5,-554.73"/>
<polygon fill="black" stroke="black" points="882,-554.61 878.5,-544.61 875,-554.61 882,-554.61"/>
</g>
<!-- 2214785485552 -->
<g id="node18" class="node">
<title>2214785485552</title>
<polygon fill="none" stroke="black" points="129.5,-913.5 129.5,-959.5 339.5,-959.5 339.5,-913.5 129.5,-913.5"/>
<text text-anchor="middle" x="161.5" y="-944.3" font-family="Times New Roman,serif" font-size="14.00">dropout</text>
<polyline fill="none" stroke="black" points="129.5,-936.5 193.5,-936.5 "/>
<text text-anchor="middle" x="161.5" y="-921.3" font-family="Times New Roman,serif" font-size="14.00">Dropout</text>
<polyline fill="none" stroke="black" points="193.5,-913.5 193.5,-959.5 "/>
<text text-anchor="middle" x="221.5" y="-944.3" font-family="Times New Roman,serif" font-size="14.00">input:</text>
<polyline fill="none" stroke="black" points="193.5,-936.5 249.5,-936.5 "/>
<text text-anchor="middle" x="221.5" y="-921.3" font-family="Times New Roman,serif" font-size="14.00">output:</text>
<polyline fill="none" stroke="black" points="249.5,-913.5 249.5,-959.5 "/>
<text text-anchor="middle" x="294.5" y="-944.3" font-family="Times New Roman,serif" font-size="14.00">(None, 1280)</text>
<polyline fill="none" stroke="black" points="249.5,-936.5 339.5,-936.5 "/>
<text text-anchor="middle" x="294.5" y="-921.3" font-family="Times New Roman,serif" font-size="14.00">(None, 1280)</text>
</g>
<!-- 2214763360896&#45;&gt;2214785485552 -->
<g id="edge17" class="edge">
<title>2214763360896&#45;&gt;2214785485552</title>
<path fill="none" stroke="black" d="M187.26,-996.37C194.43,-987.44 202.8,-977 210.5,-967.41"/>
<polygon fill="black" stroke="black" points="213.23,-969.6 216.76,-959.61 207.77,-965.22 213.23,-969.6"/>
</g>
<!-- 2214786631040 -->
<g id="node19" class="node">
<title>2214786631040</title>
<polygon fill="none" stroke="black" points="422.5,-913.5 422.5,-959.5 644.5,-959.5 644.5,-913.5 422.5,-913.5"/>
<text text-anchor="middle" x="460.5" y="-944.3" font-family="Times New Roman,serif" font-size="14.00">dropout_1</text>
<polyline fill="none" stroke="black" points="422.5,-936.5 498.5,-936.5 "/>
<text text-anchor="middle" x="460.5" y="-921.3" font-family="Times New Roman,serif" font-size="14.00">Dropout</text>
<polyline fill="none" stroke="black" points="498.5,-913.5 498.5,-959.5 "/>
<text text-anchor="middle" x="526.5" y="-944.3" font-family="Times New Roman,serif" font-size="14.00">input:</text>
<polyline fill="none" stroke="black" points="498.5,-936.5 554.5,-936.5 "/>
<text text-anchor="middle" x="526.5" y="-921.3" font-family="Times New Roman,serif" font-size="14.00">output:</text>
<polyline fill="none" stroke="black" points="554.5,-913.5 554.5,-959.5 "/>
<text text-anchor="middle" x="599.5" y="-944.3" font-family="Times New Roman,serif" font-size="14.00">(None, 1280)</text>
<polyline fill="none" stroke="black" points="554.5,-936.5 644.5,-936.5 "/>
<text text-anchor="middle" x="599.5" y="-921.3" font-family="Times New Roman,serif" font-size="14.00">(None, 1280)</text>
</g>
<!-- 2214785207552&#45;&gt;2214786631040 -->
<g id="edge18" class="edge">
<title>2214785207552&#45;&gt;2214786631040</title>
<path fill="none" stroke="black" d="M533.5,-996.37C533.5,-988.15 533.5,-978.66 533.5,-969.73"/>
<polygon fill="black" stroke="black" points="537,-969.61 533.5,-959.61 530,-969.61 537,-969.61"/>
</g>
<!-- 2214787714256 -->
<g id="node20" class="node">
<title>2214787714256</title>
<polygon fill="none" stroke="black" points="1121.5,-913.5 1121.5,-959.5 1343.5,-959.5 1343.5,-913.5 1121.5,-913.5"/>
<text text-anchor="middle" x="1159.5" y="-944.3" font-family="Times New Roman,serif" font-size="14.00">dropout_2</text>
<polyline fill="none" stroke="black" points="1121.5,-936.5 1197.5,-936.5 "/>
<text text-anchor="middle" x="1159.5" y="-921.3" font-family="Times New Roman,serif" font-size="14.00">Dropout</text>
<polyline fill="none" stroke="black" points="1197.5,-913.5 1197.5,-959.5 "/>
<text text-anchor="middle" x="1225.5" y="-944.3" font-family="Times New Roman,serif" font-size="14.00">input:</text>
<polyline fill="none" stroke="black" points="1197.5,-936.5 1253.5,-936.5 "/>
<text text-anchor="middle" x="1225.5" y="-921.3" font-family="Times New Roman,serif" font-size="14.00">output:</text>
<polyline fill="none" stroke="black" points="1253.5,-913.5 1253.5,-959.5 "/>
<text text-anchor="middle" x="1298.5" y="-944.3" font-family="Times New Roman,serif" font-size="14.00">(None, 1280)</text>
<polyline fill="none" stroke="black" points="1253.5,-936.5 1343.5,-936.5 "/>
<text text-anchor="middle" x="1298.5" y="-921.3" font-family="Times New Roman,serif" font-size="14.00">(None, 1280)</text>
</g>
<!-- 2214786348272&#45;&gt;2214787714256 -->
<g id="edge19" class="edge">
<title>2214786348272&#45;&gt;2214787714256</title>
<path fill="none" stroke="black" d="M1241.22,-996.37C1240,-988.15 1238.6,-978.66 1237.27,-969.73"/>
<polygon fill="black" stroke="black" points="1240.7,-968.99 1235.78,-959.61 1233.78,-970.01 1240.7,-968.99"/>
</g>
<!-- 2214787976112 -->
<g id="node21" class="node">
<title>2214787976112</title>
<polygon fill="none" stroke="black" points="771,-415.5 771,-461.5 986,-461.5 986,-415.5 771,-415.5"/>
<text text-anchor="middle" x="809" y="-446.3" font-family="Times New Roman,serif" font-size="14.00">dropout_3</text>
<polyline fill="none" stroke="black" points="771,-438.5 847,-438.5 "/>
<text text-anchor="middle" x="809" y="-423.3" font-family="Times New Roman,serif" font-size="14.00">Dropout</text>
<polyline fill="none" stroke="black" points="847,-415.5 847,-461.5 "/>
<text text-anchor="middle" x="875" y="-446.3" font-family="Times New Roman,serif" font-size="14.00">input:</text>
<polyline fill="none" stroke="black" points="847,-438.5 903,-438.5 "/>
<text text-anchor="middle" x="875" y="-423.3" font-family="Times New Roman,serif" font-size="14.00">output:</text>
<polyline fill="none" stroke="black" points="903,-415.5 903,-461.5 "/>
<text text-anchor="middle" x="944.5" y="-446.3" font-family="Times New Roman,serif" font-size="14.00">(None, 256)</text>
<polyline fill="none" stroke="black" points="903,-438.5 986,-438.5 "/>
<text text-anchor="middle" x="944.5" y="-423.3" font-family="Times New Roman,serif" font-size="14.00">(None, 256)</text>
</g>
<!-- 2214787934624&#45;&gt;2214787976112 -->
<g id="edge20" class="edge">
<title>2214787934624&#45;&gt;2214787976112</title>
<path fill="none" stroke="black" d="M878.5,-498.37C878.5,-490.15 878.5,-480.66 878.5,-471.73"/>
<polygon fill="black" stroke="black" points="882,-471.61 878.5,-461.61 875,-471.61 882,-471.61"/>
</g>
<!-- 2214784896208 -->
<g id="node22" class="node">
<title>2214784896208</title>
<polygon fill="none" stroke="black" points="264,-581.5 264,-627.5 461,-627.5 461,-581.5 264,-581.5"/>
<text text-anchor="middle" x="289.5" y="-612.3" font-family="Times New Roman,serif" font-size="14.00">dense</text>
<polyline fill="none" stroke="black" points="264,-604.5 315,-604.5 "/>
<text text-anchor="middle" x="289.5" y="-589.3" font-family="Times New Roman,serif" font-size="14.00">Dense</text>
<polyline fill="none" stroke="black" points="315,-581.5 315,-627.5 "/>
<text text-anchor="middle" x="343" y="-612.3" font-family="Times New Roman,serif" font-size="14.00">input:</text>
<polyline fill="none" stroke="black" points="315,-604.5 371,-604.5 "/>
<text text-anchor="middle" x="343" y="-589.3" font-family="Times New Roman,serif" font-size="14.00">output:</text>
<polyline fill="none" stroke="black" points="371,-581.5 371,-627.5 "/>
<text text-anchor="middle" x="416" y="-612.3" font-family="Times New Roman,serif" font-size="14.00">(None, 1280)</text>
<polyline fill="none" stroke="black" points="371,-604.5 461,-604.5 "/>
<text text-anchor="middle" x="416" y="-589.3" font-family="Times New Roman,serif" font-size="14.00">(None, 256)</text>
</g>
<!-- 2214785485552&#45;&gt;2214784896208 -->
<g id="edge21" class="edge">
<title>2214785485552&#45;&gt;2214784896208</title>
<path fill="none" stroke="black" d="M243.1,-913.34C265.28,-856.15 324.49,-703.5 350.25,-637.09"/>
<polygon fill="black" stroke="black" points="353.59,-638.16 353.94,-627.57 347.06,-635.63 353.59,-638.16"/>
</g>
<!-- 2214785611328 -->
<g id="node23" class="node">
<title>2214785611328</title>
<polygon fill="none" stroke="black" points="429,-747.5 429,-793.5 638,-793.5 638,-747.5 429,-747.5"/>
<text text-anchor="middle" x="460.5" y="-778.3" font-family="Times New Roman,serif" font-size="14.00">dense_1</text>
<polyline fill="none" stroke="black" points="429,-770.5 492,-770.5 "/>
<text text-anchor="middle" x="460.5" y="-755.3" font-family="Times New Roman,serif" font-size="14.00">Dense</text>
<polyline fill="none" stroke="black" points="492,-747.5 492,-793.5 "/>
<text text-anchor="middle" x="520" y="-778.3" font-family="Times New Roman,serif" font-size="14.00">input:</text>
<polyline fill="none" stroke="black" points="492,-770.5 548,-770.5 "/>
<text text-anchor="middle" x="520" y="-755.3" font-family="Times New Roman,serif" font-size="14.00">output:</text>
<polyline fill="none" stroke="black" points="548,-747.5 548,-793.5 "/>
<text text-anchor="middle" x="593" y="-778.3" font-family="Times New Roman,serif" font-size="14.00">(None, 1280)</text>
<polyline fill="none" stroke="black" points="548,-770.5 638,-770.5 "/>
<text text-anchor="middle" x="593" y="-755.3" font-family="Times New Roman,serif" font-size="14.00">(None, 256)</text>
</g>
<!-- 2214786631040&#45;&gt;2214785611328 -->
<g id="edge22" class="edge">
<title>2214786631040&#45;&gt;2214785611328</title>
<path fill="none" stroke="black" d="M533.5,-913.38C533.5,-885.18 533.5,-836.21 533.5,-803.82"/>
<polygon fill="black" stroke="black" points="537,-803.53 533.5,-793.53 530,-803.53 537,-803.53"/>
</g>
<!-- 2214785725968 -->
<g id="node24" class="node">
<title>2214785725968</title>
<polygon fill="none" stroke="black" points="1093,-664.5 1093,-710.5 1302,-710.5 1302,-664.5 1093,-664.5"/>
<text text-anchor="middle" x="1124.5" y="-695.3" font-family="Times New Roman,serif" font-size="14.00">dense_2</text>
<polyline fill="none" stroke="black" points="1093,-687.5 1156,-687.5 "/>
<text text-anchor="middle" x="1124.5" y="-672.3" font-family="Times New Roman,serif" font-size="14.00">Dense</text>
<polyline fill="none" stroke="black" points="1156,-664.5 1156,-710.5 "/>
<text text-anchor="middle" x="1184" y="-695.3" font-family="Times New Roman,serif" font-size="14.00">input:</text>
<polyline fill="none" stroke="black" points="1156,-687.5 1212,-687.5 "/>
<text text-anchor="middle" x="1184" y="-672.3" font-family="Times New Roman,serif" font-size="14.00">output:</text>
<polyline fill="none" stroke="black" points="1212,-664.5 1212,-710.5 "/>
<text text-anchor="middle" x="1257" y="-695.3" font-family="Times New Roman,serif" font-size="14.00">(None, 1280)</text>
<polyline fill="none" stroke="black" points="1212,-687.5 1302,-687.5 "/>
<text text-anchor="middle" x="1257" y="-672.3" font-family="Times New Roman,serif" font-size="14.00">(None, 256)</text>
</g>
<!-- 2214787714256&#45;&gt;2214785725968 -->
<g id="edge23" class="edge">
<title>2214787714256&#45;&gt;2214785725968</title>
<path fill="none" stroke="black" d="M1229.33,-913.14C1223.11,-869.24 1209.28,-771.61 1202.07,-720.74"/>
<polygon fill="black" stroke="black" points="1205.5,-720.04 1200.64,-710.63 1198.57,-721.02 1205.5,-720.04"/>
</g>
<!-- 2214786894336 -->
<g id="node25" class="node">
<title>2214786894336</title>
<polygon fill="none" stroke="black" points="777.5,-332.5 777.5,-378.5 979.5,-378.5 979.5,-332.5 777.5,-332.5"/>
<text text-anchor="middle" x="809" y="-363.3" font-family="Times New Roman,serif" font-size="14.00">dense_3</text>
<polyline fill="none" stroke="black" points="777.5,-355.5 840.5,-355.5 "/>
<text text-anchor="middle" x="809" y="-340.3" font-family="Times New Roman,serif" font-size="14.00">Dense</text>
<polyline fill="none" stroke="black" points="840.5,-332.5 840.5,-378.5 "/>
<text text-anchor="middle" x="868.5" y="-363.3" font-family="Times New Roman,serif" font-size="14.00">input:</text>
<polyline fill="none" stroke="black" points="840.5,-355.5 896.5,-355.5 "/>
<text text-anchor="middle" x="868.5" y="-340.3" font-family="Times New Roman,serif" font-size="14.00">output:</text>
<polyline fill="none" stroke="black" points="896.5,-332.5 896.5,-378.5 "/>
<text text-anchor="middle" x="938" y="-363.3" font-family="Times New Roman,serif" font-size="14.00">(None, 256)</text>
<polyline fill="none" stroke="black" points="896.5,-355.5 979.5,-355.5 "/>
<text text-anchor="middle" x="938" y="-340.3" font-family="Times New Roman,serif" font-size="14.00">(None, 256)</text>
</g>
<!-- 2214787976112&#45;&gt;2214786894336 -->
<g id="edge24" class="edge">
<title>2214787976112&#45;&gt;2214786894336</title>
<path fill="none" stroke="black" d="M878.5,-415.37C878.5,-407.15 878.5,-397.66 878.5,-388.73"/>
<polygon fill="black" stroke="black" points="882,-388.61 878.5,-378.61 875,-388.61 882,-388.61"/>
</g>
<!-- 2214787892560 -->
<g id="node26" class="node">
<title>2214787892560</title>
<polygon fill="none" stroke="black" points="644.5,-249.5 644.5,-295.5 1112.5,-295.5 1112.5,-249.5 644.5,-249.5"/>
<text text-anchor="middle" x="693" y="-280.3" font-family="Times New Roman,serif" font-size="14.00">concatenate_1</text>
<polyline fill="none" stroke="black" points="644.5,-272.5 741.5,-272.5 "/>
<text text-anchor="middle" x="693" y="-257.3" font-family="Times New Roman,serif" font-size="14.00">Concatenate</text>
<polyline fill="none" stroke="black" points="741.5,-249.5 741.5,-295.5 "/>
<text text-anchor="middle" x="769.5" y="-280.3" font-family="Times New Roman,serif" font-size="14.00">input:</text>
<polyline fill="none" stroke="black" points="741.5,-272.5 797.5,-272.5 "/>
<text text-anchor="middle" x="769.5" y="-257.3" font-family="Times New Roman,serif" font-size="14.00">output:</text>
<polyline fill="none" stroke="black" points="797.5,-249.5 797.5,-295.5 "/>
<text text-anchor="middle" x="955" y="-280.3" font-family="Times New Roman,serif" font-size="14.00">[(None, 256), (None, 256), (None, 256), (None, 256)]</text>
<polyline fill="none" stroke="black" points="797.5,-272.5 1112.5,-272.5 "/>
<text text-anchor="middle" x="955" y="-257.3" font-family="Times New Roman,serif" font-size="14.00">(None, 1024)</text>
</g>
<!-- 2214784896208&#45;&gt;2214787892560 -->
<g id="edge25" class="edge">
<title>2214784896208&#45;&gt;2214787892560</title>
<path fill="none" stroke="black" d="M461.35,-583.63C491.81,-571.73 520.7,-552.76 533.5,-522.5"/>
<path fill="none" stroke="black" d="M533.5,-520.5C582.31,-405.08 718.61,-333.98 804.56,-299.27"/>
<polygon fill="black" stroke="black" points="806,-302.46 814,-295.52 803.42,-295.96 806,-302.46"/>
</g>
<!-- 2214785611328&#45;&gt;2214787892560 -->
<g id="edge26" class="edge">
<title>2214785611328&#45;&gt;2214787892560</title>
<path fill="none" stroke="black" d="M525.07,-747.2C508.69,-699.66 478.74,-587.38 533.5,-522.5"/>
</g>
<!-- 2214785725968&#45;&gt;2214787892560 -->
<g id="edge27" class="edge">
<title>2214785725968&#45;&gt;2214787892560</title>
<path fill="none" stroke="black" d="M1184.79,-664.5C1168.27,-633.77 1141.5,-575.75 1141.5,-522.5 1141.5,-522.5 1141.5,-522.5 1141.5,-437.5 1141.5,-363.37 1065.33,-321.53 994.97,-298.69"/>
<polygon fill="black" stroke="black" points="995.68,-295.25 985.09,-295.6 993.59,-301.93 995.68,-295.25"/>
</g>
<!-- 2214786894336&#45;&gt;2214787892560 -->
<g id="edge28" class="edge">
<title>2214786894336&#45;&gt;2214787892560</title>
<path fill="none" stroke="black" d="M878.5,-332.37C878.5,-324.15 878.5,-314.66 878.5,-305.73"/>
<polygon fill="black" stroke="black" points="882,-305.61 878.5,-295.61 875,-305.61 882,-305.61"/>
</g>
<!-- 2214787754544 -->
<g id="node27" class="node">
<title>2214787754544</title>
<polygon fill="none" stroke="black" points="774,-166.5 774,-212.5 983,-212.5 983,-166.5 774,-166.5"/>
<text text-anchor="middle" x="805.5" y="-197.3" font-family="Times New Roman,serif" font-size="14.00">dense_4</text>
<polyline fill="none" stroke="black" points="774,-189.5 837,-189.5 "/>
<text text-anchor="middle" x="805.5" y="-174.3" font-family="Times New Roman,serif" font-size="14.00">Dense</text>
<polyline fill="none" stroke="black" points="837,-166.5 837,-212.5 "/>
<text text-anchor="middle" x="865" y="-197.3" font-family="Times New Roman,serif" font-size="14.00">input:</text>
<polyline fill="none" stroke="black" points="837,-189.5 893,-189.5 "/>
<text text-anchor="middle" x="865" y="-174.3" font-family="Times New Roman,serif" font-size="14.00">output:</text>
<polyline fill="none" stroke="black" points="893,-166.5 893,-212.5 "/>
<text text-anchor="middle" x="938" y="-197.3" font-family="Times New Roman,serif" font-size="14.00">(None, 1024)</text>
<polyline fill="none" stroke="black" points="893,-189.5 983,-189.5 "/>
<text text-anchor="middle" x="938" y="-174.3" font-family="Times New Roman,serif" font-size="14.00">(None, 64)</text>
</g>
<!-- 2214787892560&#45;&gt;2214787754544 -->
<g id="edge29" class="edge">
<title>2214787892560&#45;&gt;2214787754544</title>
<path fill="none" stroke="black" d="M878.5,-249.37C878.5,-241.15 878.5,-231.66 878.5,-222.73"/>
<polygon fill="black" stroke="black" points="882,-222.61 878.5,-212.61 875,-222.61 882,-222.61"/>
</g>
<!-- 2214787894000 -->
<g id="node28" class="node">
<title>2214787894000</title>
<polygon fill="none" stroke="black" points="780.5,-83.5 780.5,-129.5 976.5,-129.5 976.5,-83.5 780.5,-83.5"/>
<text text-anchor="middle" x="812" y="-114.3" font-family="Times New Roman,serif" font-size="14.00">dense_5</text>
<polyline fill="none" stroke="black" points="780.5,-106.5 843.5,-106.5 "/>
<text text-anchor="middle" x="812" y="-91.3" font-family="Times New Roman,serif" font-size="14.00">Dense</text>
<polyline fill="none" stroke="black" points="843.5,-83.5 843.5,-129.5 "/>
<text text-anchor="middle" x="871.5" y="-114.3" font-family="Times New Roman,serif" font-size="14.00">input:</text>
<polyline fill="none" stroke="black" points="843.5,-106.5 899.5,-106.5 "/>
<text text-anchor="middle" x="871.5" y="-91.3" font-family="Times New Roman,serif" font-size="14.00">output:</text>
<polyline fill="none" stroke="black" points="899.5,-83.5 899.5,-129.5 "/>
<text text-anchor="middle" x="938" y="-114.3" font-family="Times New Roman,serif" font-size="14.00">(None, 64)</text>
<polyline fill="none" stroke="black" points="899.5,-106.5 976.5,-106.5 "/>
<text text-anchor="middle" x="938" y="-91.3" font-family="Times New Roman,serif" font-size="14.00">(None, 32)</text>
</g>
<!-- 2214787754544&#45;&gt;2214787894000 -->
<g id="edge30" class="edge">
<title>2214787754544&#45;&gt;2214787894000</title>
<path fill="none" stroke="black" d="M878.5,-166.37C878.5,-158.15 878.5,-148.66 878.5,-139.73"/>
<polygon fill="black" stroke="black" points="882,-139.61 878.5,-129.61 875,-139.61 882,-139.61"/>
</g>
<!-- 2214786810352 -->
<g id="node29" class="node">
<title>2214786810352</title>
<polygon fill="none" stroke="black" points="780.5,-0.5 780.5,-46.5 976.5,-46.5 976.5,-0.5 780.5,-0.5"/>
<text text-anchor="middle" x="812" y="-31.3" font-family="Times New Roman,serif" font-size="14.00">dense_6</text>
<polyline fill="none" stroke="black" points="780.5,-23.5 843.5,-23.5 "/>
<text text-anchor="middle" x="812" y="-8.3" font-family="Times New Roman,serif" font-size="14.00">Dense</text>
<polyline fill="none" stroke="black" points="843.5,-0.5 843.5,-46.5 "/>
<text text-anchor="middle" x="871.5" y="-31.3" font-family="Times New Roman,serif" font-size="14.00">input:</text>
<polyline fill="none" stroke="black" points="843.5,-23.5 899.5,-23.5 "/>
<text text-anchor="middle" x="871.5" y="-8.3" font-family="Times New Roman,serif" font-size="14.00">output:</text>
<polyline fill="none" stroke="black" points="899.5,-0.5 899.5,-46.5 "/>
<text text-anchor="middle" x="938" y="-31.3" font-family="Times New Roman,serif" font-size="14.00">(None, 32)</text>
<polyline fill="none" stroke="black" points="899.5,-23.5 976.5,-23.5 "/>
<text text-anchor="middle" x="938" y="-8.3" font-family="Times New Roman,serif" font-size="14.00">(None, 3)</text>
</g>
<!-- 2214787894000&#45;&gt;2214786810352 -->
<g id="edge31" class="edge">
<title>2214787894000&#45;&gt;2214786810352</title>
<path fill="none" stroke="black" d="M878.5,-83.37C878.5,-75.15 878.5,-65.66 878.5,-56.73"/>
<polygon fill="black" stroke="black" points="882,-56.61 878.5,-46.61 875,-56.61 882,-56.61"/>
</g>
</g>
</svg>
